<mxfile host="app.diagrams.net" modified="2023-10-31T10:25:09.180Z" agent="Mozilla/5.0 (Windows NT 10.0; Win64; x64) AppleWebKit/537.36 (KHTML, like Gecko) Chrome/118.0.0.0 Safari/537.36" version="22.0.8" etag="h40AlTZhMSjAUJasd8bx" type="github">
  <diagram name="Страница — 1" id="kKsPNAz9FFOBg45A_uxA">
    <mxGraphModel>
      <root>
        <mxCell id="0" />
        <mxCell id="1" parent="0" />
      </root>
    </mxGraphModel>
  </diagram>
</mxfile>
